<svg width="21" height="17" viewBox="0 0 21 17" fill="none" xmlns="http://www.w3.org/2000/svg">
<path d="M20.6774 2.30208C19.9348 2.62598 19.1494 2.84124 18.3454 2.94123C19.1927 2.43858 19.8262 1.64266 20.1259 0.704221C19.3325 1.17474 18.4645 1.50608 17.5594 1.68391C17.0045 1.09138 16.2842 0.679444 15.4921 0.501613C14.7 0.323782 13.8727 0.388281 13.1177 0.68673C12.3627 0.985179 11.715 1.50378 11.2586 2.17516C10.8022 2.84654 10.5582 3.63967 10.5584 4.45149C10.5584 4.77229 10.5856 5.08076 10.6522 5.37442C9.04212 5.29548 7.46681 4.8776 6.02928 4.1481C4.59175 3.4186 3.32438 2.3939 2.31002 1.14101C1.79034 2.03169 1.62967 3.08696 1.86075 4.09194C2.09182 5.09692 2.69725 5.97605 3.55376 6.5503C2.91308 6.53312 2.28593 6.36215 1.72516 6.05182V6.09624C1.72624 7.03081 2.04926 7.93648 2.63985 8.66079C3.23045 9.3851 4.05255 9.88382 4.96778 10.073C4.62154 10.1643 4.2647 10.2091 3.90665 10.2063C3.64949 10.2108 3.3926 10.1877 3.14041 10.1372C3.40192 10.9404 3.90602 11.6429 4.58329 12.1478C5.26057 12.6527 6.07772 12.9353 6.92223 12.9566C5.48963 14.077 3.72277 14.6847 1.90407 14.6827C1.57216 14.6827 1.25382 14.6679 0.935486 14.6272C2.78615 15.8198 4.9427 16.4507 7.14432 16.4435C14.592 16.4435 18.6637 10.2741 18.6637 4.92653C18.6637 4.74762 18.6576 4.57487 18.6489 4.40337C19.4472 3.83207 20.1346 3.11999 20.6774 2.30208Z" fill="#03A9F4"/>
</svg>
