<svg width="21" height="21" viewBox="0 0 21 21" fill="none" xmlns="http://www.w3.org/2000/svg">
<path d="M13.8952 0.758057H6.49193C4.85571 0.758057 3.28651 1.40804 2.12953 2.56502C0.972555 3.722 0.322571 5.2912 0.322571 6.92741V14.3306C0.322571 15.9669 0.972555 17.5361 2.12953 18.693C3.28651 19.85 4.85571 20.5 6.49193 20.5H13.8952C15.5314 20.5 17.1006 19.85 18.2575 18.693C19.4145 17.5361 20.0645 15.9669 20.0645 14.3306V6.92741C20.0645 5.2912 19.4145 3.722 18.2575 2.56502C17.1006 1.40804 15.5314 0.758057 13.8952 0.758057ZM18.2137 14.3306C18.2137 16.712 16.2765 18.6492 13.8952 18.6492H6.49193C4.11055 18.6492 2.17338 16.712 2.17338 14.3306V6.92741C2.17338 4.54604 4.11055 2.60886 6.49193 2.60886H13.8952C16.2765 2.60886 18.2137 4.54604 18.2137 6.92741V14.3306Z" fill="url(#paint0_linear_163_92)"/>
<path d="M10.1935 5.69348C8.88457 5.69348 7.62921 6.21347 6.70363 7.13905C5.77804 8.06463 5.25806 9.31999 5.25806 10.629C5.25806 11.9379 5.77804 13.1933 6.70363 14.1189C7.62921 15.0445 8.88457 15.5644 10.1935 15.5644C11.5025 15.5644 12.7579 15.0445 13.6835 14.1189C14.609 13.1933 15.129 11.9379 15.129 10.629C15.129 9.31999 14.609 8.06463 13.6835 7.13905C12.7579 6.21347 11.5025 5.69348 10.1935 5.69348ZM10.1935 13.7136C9.37573 13.7127 8.5917 13.3874 8.01343 12.8091C7.43515 12.2308 7.10984 11.4468 7.10886 10.629C7.10886 8.92746 8.49327 7.54429 10.1935 7.54429C11.8938 7.54429 13.2782 8.92746 13.2782 10.629C13.2782 12.3292 11.8938 13.7136 10.1935 13.7136Z" fill="url(#paint1_linear_163_92)"/>
<path d="M15.4992 5.98108C15.8624 5.98108 16.1569 5.68664 16.1569 5.32342C16.1569 4.96021 15.8624 4.66577 15.4992 4.66577C15.136 4.66577 14.8416 4.96021 14.8416 5.32342C14.8416 5.68664 15.136 5.98108 15.4992 5.98108Z" fill="url(#paint2_linear_163_92)"/>
<defs>
<linearGradient id="paint0_linear_163_92" x1="2.12902" y1="18.6936" x2="18.2582" y2="2.56444" gradientUnits="userSpaceOnUse">
<stop stop-color="#FFC107"/>
<stop offset="0.507" stop-color="#F44336"/>
<stop offset="0.99" stop-color="#9C27B0"/>
</linearGradient>
<linearGradient id="paint1_linear_163_92" x1="6.70415" y1="14.1184" x2="13.6829" y2="7.13958" gradientUnits="userSpaceOnUse">
<stop stop-color="#FFC107"/>
<stop offset="0.507" stop-color="#F44336"/>
<stop offset="0.99" stop-color="#9C27B0"/>
</linearGradient>
<linearGradient id="paint2_linear_163_92" x1="15.034" y1="5.78859" x2="15.9644" y2="4.85826" gradientUnits="userSpaceOnUse">
<stop stop-color="#FFC107"/>
<stop offset="0.507" stop-color="#F44336"/>
<stop offset="0.99" stop-color="#9C27B0"/>
</linearGradient>
</defs>
</svg>
