<svg width="14" height="10" viewBox="0 0 14 10" fill="none" xmlns="http://www.w3.org/2000/svg">
<path d="M0 1.17531V0.833333C0 0.61232 0.0921873 0.400358 0.256282 0.244078C0.420376 0.0877974 0.642936 0 0.875 0L13.125 0C13.3571 0 13.5796 0.0877974 13.7437 0.244078C13.9078 0.400358 14 0.61232 14 0.833333V1.17531L7 5.34198L0 1.17531ZM7.23188 6.18677C7.16232 6.22811 7.08199 6.25003 7 6.25003C6.91801 6.25003 6.83768 6.22811 6.76813 6.18677L0 2.15802V9.16667C0 9.38768 0.0921873 9.59964 0.256282 9.75592C0.420376 9.9122 0.642936 10 0.875 10H13.125C13.3571 10 13.5796 9.9122 13.7437 9.75592C13.9078 9.59964 14 9.38768 14 9.16667V2.15802L7.23188 6.18677Z" fill="white"/>
</svg>
