<svg width="16" height="16" viewBox="0 0 16 16" fill="none" xmlns="http://www.w3.org/2000/svg">
<path d="M7.81848 0H7.81457C3.50474 0 1.02562e-05 3.49157 1.02562e-05 7.785C-0.00266602 9.42472 0.518489 11.0228 1.48808 12.348L0.513946 15.2401L3.51842 14.2835C4.79288 15.1256 6.28906 15.5733 7.81848 15.57C12.1283 15.57 15.633 12.0775 15.633 7.785C15.633 3.49255 12.1283 0 7.81848 0ZM12.3667 10.9934C12.1781 11.5237 11.4297 11.9636 10.8327 12.0921C10.4243 12.1787 9.89084 12.2478 8.09499 11.5062C5.79791 10.5584 4.31864 8.23361 4.20334 8.08278C4.09293 7.93194 3.27513 6.85177 3.27513 5.73463C3.27513 4.61748 3.84476 4.0735 4.07437 3.83995C4.26294 3.64825 4.57463 3.56066 4.87361 3.56066C4.97034 3.56066 5.0573 3.56553 5.13546 3.56942C5.36507 3.57915 5.48037 3.59278 5.63181 3.95381C5.82039 4.40631 6.27961 5.52346 6.33432 5.63829C6.39001 5.75311 6.44571 5.90882 6.36754 6.05965C6.29426 6.21535 6.22978 6.28444 6.11448 6.41679C5.99919 6.54913 5.88976 6.65034 5.77446 6.79241C5.66894 6.916 5.54974 7.04834 5.68262 7.27703C5.8155 7.50085 6.27472 8.24723 6.95085 8.84668C7.82337 9.62031 8.53076 9.86749 8.78382 9.97258C8.9724 10.0504 9.19712 10.0319 9.33489 9.88598C9.50978 9.69816 9.72571 9.38676 9.94555 9.08023C10.1019 8.8603 10.2992 8.83305 10.5064 8.9109C10.7174 8.98389 11.8342 9.53371 12.0638 9.64756C12.2934 9.76239 12.4449 9.81688 12.5006 9.91322C12.5553 10.0096 12.5553 10.4621 12.3667 10.9934Z" fill="white"/>
</svg>
