<svg width="14" height="14" viewBox="0 0 14 14" fill="none" xmlns="http://www.w3.org/2000/svg">
<path d="M7.39977 1.59499C8.59933 1.59499 9.74976 2.07344 10.598 2.92509C11.4462 3.77674 11.9227 4.93182 11.9227 6.13624C11.9227 6.30829 11.9908 6.47331 12.112 6.59497C12.2331 6.71664 12.3975 6.78499 12.5688 6.78499C12.7402 6.78499 12.9046 6.71664 13.0257 6.59497C13.1469 6.47331 13.215 6.30829 13.215 6.13624C13.215 4.5877 12.6023 3.10259 11.5117 2.00762C10.4212 0.912638 8.94206 0.297485 7.39977 0.297485C7.22841 0.297485 7.06406 0.365836 6.94289 0.4875C6.82171 0.609164 6.75364 0.774176 6.75364 0.946235C6.75364 1.11829 6.82171 1.28331 6.94289 1.40497C7.06406 1.52664 7.22841 1.59499 7.39977 1.59499ZM13.0534 9.3216C13.0179 9.21745 12.9566 9.1241 12.8752 9.05033C12.7938 8.97656 12.695 8.92479 12.5882 8.89991L8.71142 8.01112C8.60619 7.98717 8.49666 7.99005 8.39283 8.01952C8.28899 8.04898 8.19416 8.10408 8.11698 8.1798C8.02652 8.26414 8.02006 8.27062 7.60007 9.07507C6.20649 8.43032 5.08984 7.30454 4.4534 5.90269C5.27399 5.48749 5.28045 5.48749 5.36445 5.39017C5.43986 5.31268 5.49474 5.21747 5.52409 5.11321C5.55343 5.00895 5.5563 4.89898 5.53244 4.79332L4.64724 0.946235C4.62246 0.838994 4.57091 0.739849 4.49743 0.658133C4.42396 0.576417 4.33098 0.514818 4.22725 0.479135C4.07636 0.425023 3.92054 0.38591 3.76204 0.36236C3.59873 0.32434 3.43208 0.30261 3.26451 0.297485C2.47623 0.297485 1.72024 0.611897 1.16284 1.17155C0.605441 1.73121 0.292297 2.49026 0.292297 3.28174C0.295717 5.93039 1.34516 8.46959 3.2105 10.3425C5.07583 12.2154 7.60478 13.2691 10.2428 13.2725C10.6331 13.2725 11.0196 13.1953 11.3802 13.0453C11.7408 12.8954 12.0684 12.6755 12.3444 12.3984C12.6204 12.1213 12.8394 11.7923 12.9887 11.4303C13.1381 11.0682 13.215 10.6801 13.215 10.2882C13.2152 10.1231 13.2022 9.95823 13.1762 9.79519C13.1491 9.63404 13.108 9.47558 13.0534 9.3216Z" fill="white"/>
</svg>
