<svg width="11" height="14" viewBox="0 0 11 14" fill="none" xmlns="http://www.w3.org/2000/svg">
<path d="M5.6757 0.837769C4.29992 0.839314 2.98092 1.38653 2.0081 2.35935C1.03527 3.33218 0.488056 4.65117 0.486511 6.02696C0.486511 8.13831 2.01927 9.89161 3.64284 11.7474C4.15657 12.3351 4.68846 12.9429 5.16197 13.5578C5.22257 13.6364 5.30039 13.7 5.38946 13.7438C5.47852 13.7876 5.57645 13.8104 5.6757 13.8104C5.77495 13.8104 5.87288 13.7876 5.96194 13.7438C6.05101 13.7 6.12884 13.6364 6.18943 13.5578C6.66294 12.9429 7.19484 12.3351 7.70857 11.7474C9.33213 9.89161 10.8649 8.13831 10.8649 6.02696C10.8633 4.65117 10.3161 3.33218 9.3433 2.35935C8.37048 1.38653 7.05149 0.839314 5.6757 0.837769ZM5.6757 7.9729C5.29083 7.9729 4.9146 7.85878 4.59459 7.64495C4.27458 7.43113 4.02516 7.12721 3.87788 6.77164C3.7306 6.41606 3.69206 6.0248 3.76715 5.64732C3.84223 5.26985 4.02756 4.92311 4.29971 4.65097C4.57185 4.37882 4.91859 4.19349 5.29607 4.1184C5.67354 4.04332 6.06481 4.08185 6.42038 4.22914C6.77596 4.37642 7.07987 4.62584 7.2937 4.94585C7.50752 5.26586 7.62165 5.64209 7.62165 6.02696C7.62165 6.54305 7.41663 7.03801 7.05169 7.40295C6.68676 7.76789 6.1918 7.9729 5.6757 7.9729Z" fill="white"/>
</svg>
