<svg width="196" height="14" viewBox="0 0 196 14" fill="none" xmlns="http://www.w3.org/2000/svg">
<path d="M0.286719 9V0.408H3.64672C4.90272 0.408 5.80672 0.74 6.35872 1.404C7.05472 2.236 7.40272 3.336 7.40272 4.704C7.40272 6.08 7.05472 7.18 6.35872 8.004C5.79872 8.668 4.89472 9 3.64672 9H0.286719ZM2.05072 7.524H3.64672C4.97472 7.524 5.63872 6.584 5.63872 4.704C5.63872 2.824 4.97472 1.884 3.64672 1.884H2.05072V7.524ZM12.5265 0.275999C13.7425 0.275999 14.7185 0.663999 15.4545 1.44C16.2545 2.28 16.6545 3.368 16.6545 4.704C16.6545 6.024 16.2545 7.112 15.4545 7.968C14.7265 8.744 13.7505 9.132 12.5265 9.132C11.2945 9.132 10.3145 8.744 9.58653 7.968C8.78653 7.112 8.38653 6.024 8.38653 4.704C8.38653 3.384 8.78653 2.296 9.58653 1.44C10.3225 0.663999 11.3025 0.275999 12.5265 0.275999ZM12.5265 1.788C11.7585 1.788 11.1545 2.088 10.7145 2.688C10.3385 3.208 10.1505 3.88 10.1505 4.704C10.1505 5.648 10.3945 6.388 10.8825 6.924C11.3065 7.388 11.8545 7.62 12.5265 7.62C13.2945 7.62 13.8945 7.32 14.3265 6.72C14.7025 6.2 14.8905 5.528 14.8905 4.704C14.8905 3.76 14.6465 3.02 14.1585 2.484C13.7345 2.02 13.1905 1.788 12.5265 1.788ZM19.7695 0.408V7.524H23.8855V9H18.0055V0.408H19.7695ZM26.7187 5.94V9H24.9547V0.408H28.7467C29.7067 0.408 30.4227 0.668 30.8947 1.188C31.3107 1.644 31.5187 2.272 31.5187 3.072C31.5187 4.008 31.2547 4.736 30.7267 5.256C30.2627 5.712 29.6627 5.94 28.9267 5.94H26.7187ZM26.7187 4.464H28.3627C29.2907 4.464 29.7547 4.036 29.7547 3.18C29.7547 2.316 29.2907 1.884 28.3627 1.884H26.7187V4.464ZM38.0017 5.1H34.5937V9H32.8297V0.408H34.5937V3.624H37.9897V0.408H39.7657V9H38.0017V5.1ZM43.289 0.408V9H41.525V0.408H43.289ZM50.2723 9L46.8163 3.06V9H45.0523V0.408H46.8643L50.2723 6.252V0.408H52.0363V9H50.2723ZM60.0465 3H58.3905C58.3345 2.128 57.7345 1.692 56.5905 1.692C56.1345 1.692 55.7705 1.784 55.4985 1.968C55.2345 2.152 55.1025 2.4 55.1025 2.712C55.1025 3.016 55.2145 3.244 55.4385 3.396C55.6625 3.548 56.0945 3.684 56.7345 3.804L58.0785 4.056C58.8705 4.208 59.4465 4.468 59.8065 4.836C60.1665 5.204 60.3465 5.724 60.3465 6.396C60.3465 7.316 59.9945 8.016 59.2905 8.496C58.6825 8.92 57.8625 9.132 56.8305 9.132C55.6545 9.132 54.7585 8.86 54.1425 8.316C53.6065 7.844 53.3145 7.188 53.2665 6.348H54.9825C55.0465 7.26 55.6905 7.716 56.9145 7.716C57.4585 7.716 57.8825 7.62 58.1865 7.428C58.4985 7.228 58.6545 6.956 58.6545 6.612C58.6545 6.276 58.5305 6.016 58.2825 5.832C58.0425 5.648 57.6265 5.5 57.0345 5.388L55.8345 5.16C54.9625 5 54.3385 4.748 53.9625 4.404C53.5945 4.052 53.4105 3.548 53.4105 2.892C53.4105 2.004 53.7345 1.332 54.3825 0.875999C54.9425 0.475999 55.7025 0.275999 56.6625 0.275999C57.8225 0.275999 58.6945 0.539999 59.2785 1.068C59.7825 1.532 60.0385 2.176 60.0465 3ZM66.2249 0.84C66.4409 0.84 66.6249 0.916 66.7769 1.068C66.9289 1.22 67.0049 1.404 67.0049 1.62C67.0049 1.828 66.9289 2.008 66.7769 2.16C66.6249 2.312 66.4409 2.388 66.2249 2.388C66.0089 2.388 65.8249 2.312 65.6729 2.16C65.5209 2.008 65.4449 1.828 65.4449 1.62C65.4449 1.404 65.5209 1.22 65.6729 1.068C65.8249 0.916 66.0089 0.84 66.2249 0.84ZM68.0489 0.84C68.2649 0.84 68.4489 0.916 68.6009 1.068C68.7529 1.22 68.8289 1.404 68.8289 1.62C68.8289 1.828 68.7529 2.008 68.6009 2.16C68.4489 2.312 68.2649 2.388 68.0489 2.388C67.8409 2.388 67.6609 2.312 67.5089 2.16C67.3569 2.008 67.2809 1.828 67.2809 1.62C67.2809 1.404 67.3569 1.22 67.5089 1.068C67.6609 0.916 67.8409 0.84 68.0489 0.84ZM68.8289 3.156V7.476C68.8289 7.572 68.8569 7.644 68.9129 7.692C68.9609 7.748 69.0249 7.776 69.1049 7.776H69.4409V9H68.6849C68.3169 9 67.9849 8.852 67.6889 8.556C67.2329 8.932 66.7249 9.12 66.1649 9.12C65.5329 9.12 64.9889 8.92 64.5329 8.52C63.9249 7.952 63.6209 7.192 63.6209 6.24C63.6209 5.368 63.9009 4.644 64.4609 4.068C64.9729 3.548 65.6009 3.288 66.3449 3.288C66.7609 3.288 67.1769 3.376 67.5929 3.552L68.1089 3.156H68.8289ZM67.3649 4.704C67.0849 4.6 66.8169 4.548 66.5609 4.548C66.1289 4.548 65.7729 4.708 65.4929 5.028C65.2129 5.34 65.0729 5.748 65.0729 6.252C65.0729 6.756 65.1969 7.16 65.4449 7.464C65.7009 7.768 66.0409 7.92 66.4649 7.92C66.7529 7.92 67.0529 7.856 67.3649 7.728V4.704ZM72.9705 0.408V5.496C74.0585 4.048 75.3865 3.324 76.9545 3.324C77.9145 3.324 78.7025 3.628 79.3185 4.236C79.8865 4.78 80.1705 5.464 80.1705 6.288V7.428C80.1705 7.46 80.1665 7.52 80.1585 7.608C80.1585 7.688 80.1585 7.744 80.1585 7.776H80.5545V9H80.3145L79.9185 8.508H79.8825C79.6185 8.836 79.2825 9 78.8745 9H69.3585V7.776H71.5185V0.408H72.9705ZM78.7065 6.36C78.6985 5.752 78.4625 5.288 77.9985 4.968C77.6465 4.712 77.2185 4.584 76.7145 4.584C76.1225 4.584 75.5505 4.768 74.9985 5.136C74.1905 5.672 73.5145 6.552 72.9705 7.776H78.4065C78.6065 7.776 78.7065 7.676 78.7065 7.476V6.36ZM93.1999 3.48V7.68C93.1999 8.04 93.0719 8.352 92.8159 8.616C92.5679 8.872 92.2639 9 91.9039 9H89.3839L88.9399 8.508H88.9039C88.6399 8.836 88.3039 9 87.8959 9H85.3759L84.9199 8.508H84.8839C84.6199 8.836 84.2839 9 83.8759 9H80.4679V7.776H83.4079C83.6079 7.776 83.7079 7.676 83.7079 7.476V4.86H85.1719V7.26C85.1719 7.492 85.1679 7.664 85.1599 7.776H87.4279C87.6279 7.776 87.7279 7.676 87.7279 7.476V4.164H89.1919V7.368C89.1919 7.416 89.1879 7.488 89.1799 7.584C89.1799 7.672 89.1799 7.736 89.1799 7.776H91.4359C91.6359 7.776 91.7359 7.676 91.7359 7.476V3.48H93.1999ZM96.3193 0.408V8.7L95.5753 9.3H94.8553V0.408H96.3193ZM100.529 9C99.6485 9 98.9565 8.7 98.4525 8.1C98.0285 7.588 97.8165 6.956 97.8165 6.204C97.8165 5.308 98.0685 4.608 98.5725 4.104C99.1005 3.592 99.7765 3.336 100.601 3.336C101.201 3.336 101.721 3.484 102.161 3.78C102.737 4.196 103.025 4.788 103.025 5.556V7.776H103.409V9H103.013C102.957 9.864 102.653 10.54 102.101 11.028C101.717 11.372 101.257 11.608 100.721 11.736C100.345 11.824 99.9765 11.868 99.6165 11.868C99.4965 11.868 99.3245 11.86 99.1005 11.844H99.0645L98.4525 11.088V10.56C98.7805 10.616 99.0885 10.644 99.3765 10.644C100.689 10.644 101.405 10.096 101.525 9H100.529ZM101.561 5.556C101.561 5.236 101.457 4.984 101.249 4.8C101.065 4.64 100.849 4.56 100.601 4.56C100.193 4.56 99.8685 4.704 99.6285 4.992C99.3885 5.28 99.2685 5.676 99.2685 6.18C99.2685 6.668 99.4005 7.056 99.6645 7.344C99.9285 7.632 100.289 7.776 100.745 7.776H101.561V5.556ZM106.931 3.48V7.68C106.931 7.992 106.827 8.28 106.619 8.544C106.355 8.848 106.027 9 105.635 9H103.319V7.776H105.167C105.255 7.776 105.331 7.744 105.395 7.68C105.451 7.624 105.479 7.556 105.479 7.476V3.48H106.931ZM105.935 9.876C106.151 9.876 106.335 9.952 106.487 10.104C106.639 10.256 106.715 10.44 106.715 10.656C106.715 10.872 106.639 11.056 106.487 11.208C106.335 11.36 106.151 11.436 105.935 11.436C105.719 11.436 105.535 11.36 105.383 11.208C105.239 11.056 105.167 10.872 105.167 10.656C105.167 10.44 105.239 10.256 105.383 10.104C105.535 9.952 105.719 9.876 105.935 9.876ZM111.045 5.592C111.317 4.808 111.813 4.212 112.533 3.804C113.069 3.5 113.649 3.348 114.273 3.348C114.897 3.348 115.469 3.516 115.989 3.852C116.645 4.252 117.109 4.832 117.381 5.592L117.249 5.928C116.913 6.08 116.573 6.328 116.229 6.672C115.893 7.04 115.673 7.408 115.569 7.776H117.501V9H114.861C114.637 9 114.433 8.896 114.249 8.688H114.189C114.021 8.872 113.785 8.984 113.481 9.024C113.433 9.032 113.389 9.04 113.349 9.048C112.861 9.128 112.521 9.32 112.329 9.624C112.177 9.856 112.101 10.168 112.101 10.56C112.101 11.728 112.873 12.312 114.417 12.312C114.865 12.312 115.333 12.244 115.821 12.108V12.612L115.185 13.392C114.921 13.472 114.553 13.52 114.081 13.536C113.129 13.536 112.345 13.308 111.729 12.852C111.001 12.324 110.637 11.544 110.637 10.512C110.637 9.856 110.793 9.324 111.105 8.916C111.489 8.38 112.085 8.036 112.893 7.884C112.813 7.532 112.617 7.172 112.305 6.804C111.977 6.412 111.601 6.12 111.177 5.928L111.045 5.592ZM115.845 5.496C115.653 5.16 115.393 4.912 115.065 4.752C114.817 4.632 114.541 4.572 114.237 4.572C113.917 4.572 113.613 4.64 113.325 4.776C113.005 4.936 112.757 5.176 112.581 5.496C112.853 5.616 113.141 5.856 113.445 6.216C113.797 6.592 114.045 7 114.189 7.44H114.237C114.389 6.992 114.649 6.564 115.017 6.156C115.313 5.828 115.589 5.608 115.845 5.496ZM121.161 0.84C121.377 0.84 121.561 0.916 121.713 1.068C121.865 1.22 121.941 1.404 121.941 1.62C121.941 1.828 121.865 2.008 121.713 2.16C121.561 2.312 121.377 2.388 121.161 2.388C120.953 2.388 120.773 2.312 120.621 2.16C120.469 2.008 120.393 1.828 120.393 1.62C120.393 1.404 120.469 1.22 120.621 1.068C120.773 0.916 120.953 0.84 121.161 0.84ZM122.985 0.84C123.201 0.84 123.385 0.916 123.537 1.068C123.689 1.22 123.765 1.404 123.765 1.62C123.765 1.828 123.689 2.008 123.537 2.16C123.385 2.312 123.201 2.388 122.985 2.388C122.777 2.388 122.597 2.312 122.445 2.16C122.293 2.008 122.217 1.828 122.217 1.62C122.217 1.404 122.293 1.22 122.445 1.068C122.597 0.916 122.777 0.84 122.985 0.84ZM119.829 7.776C119.645 7.544 119.501 7.268 119.397 6.948C119.309 6.644 119.265 6.34 119.265 6.036C119.265 5.332 119.469 4.744 119.877 4.272C120.397 3.648 121.129 3.336 122.073 3.336C122.745 3.336 123.305 3.516 123.753 3.876C124.241 4.292 124.485 4.852 124.485 5.556V7.68C124.485 8.008 124.377 8.3 124.161 8.556C123.905 8.852 123.581 9 123.189 9H117.417V7.776H119.829ZM123.021 5.556C123.021 5.228 122.909 4.964 122.685 4.764C122.509 4.628 122.305 4.56 122.073 4.56C121.553 4.56 121.177 4.764 120.945 5.172C120.793 5.428 120.717 5.752 120.717 6.144C120.717 6.68 120.885 7.1 121.221 7.404C121.493 7.652 121.849 7.776 122.289 7.776H122.721C122.921 7.776 123.021 7.676 123.021 7.476V5.556ZM128.525 9C127.645 9 126.953 8.7 126.449 8.1C126.025 7.588 125.813 6.956 125.813 6.204C125.813 5.308 126.065 4.608 126.569 4.104C127.097 3.592 127.773 3.336 128.597 3.336C129.197 3.336 129.717 3.484 130.157 3.78C130.733 4.196 131.021 4.788 131.021 5.556V7.776H131.405V9H131.009C130.953 9.864 130.649 10.54 130.097 11.028C129.713 11.372 129.253 11.608 128.717 11.736C128.341 11.824 127.973 11.868 127.613 11.868C127.493 11.868 127.321 11.86 127.097 11.844H127.061L126.449 11.088V10.56C126.777 10.616 127.085 10.644 127.373 10.644C128.685 10.644 129.401 10.096 129.521 9H128.525ZM129.557 5.556C129.557 5.236 129.453 4.984 129.245 4.8C129.061 4.64 128.845 4.56 128.597 4.56C128.189 4.56 127.865 4.704 127.625 4.992C127.385 5.28 127.265 5.676 127.265 6.18C127.265 6.668 127.397 7.056 127.661 7.344C127.925 7.632 128.285 7.776 128.741 7.776H129.557V5.556ZM133.452 7.776C133.26 7.312 133.164 6.792 133.164 6.216C133.164 5.272 133.456 4.54 134.04 4.02C134.528 3.58 135.152 3.356 135.912 3.348C136.592 3.348 137.148 3.508 137.58 3.828C138.108 4.228 138.372 4.804 138.372 5.556V7.476C138.372 7.548 138.392 7.616 138.432 7.68C138.496 7.744 138.568 7.776 138.648 7.776H138.756V9H138.228C137.868 9 137.56 8.872 137.304 8.616C136.912 9.112 136.392 9.36 135.744 9.36C135.048 9.36 134.456 9.104 133.968 8.592H133.944L133.608 9H131.316V7.776H133.452ZM136.908 5.556C136.908 5.26 136.816 5.02 136.632 4.836C136.464 4.652 136.224 4.56 135.912 4.56C135.52 4.56 135.204 4.712 134.964 5.016C134.732 5.32 134.616 5.728 134.616 6.24C134.616 6.8 134.736 7.256 134.976 7.608C135.216 7.96 135.524 8.136 135.9 8.136C136.244 8.136 136.58 7.972 136.908 7.644V5.556ZM142.287 0.408V7.68C142.287 8.016 142.179 8.304 141.963 8.544C141.715 8.848 141.391 9 140.991 9H138.675V7.776H140.523C140.611 7.776 140.687 7.744 140.751 7.68C140.807 7.624 140.835 7.556 140.835 7.476V0.408H142.287ZM145.409 0.408V8.7L144.665 9.3H143.945V0.408H145.409ZM150.538 7.776C150.202 7.312 150.034 6.744 150.034 6.072C150.042 5.208 150.334 4.52 150.91 4.008C151.406 3.568 152.026 3.344 152.77 3.336C153.49 3.336 154.074 3.52 154.522 3.888C155.002 4.288 155.242 4.844 155.242 5.556V7.476C155.242 7.564 155.27 7.636 155.326 7.692C155.374 7.748 155.434 7.776 155.506 7.776H155.626V9H155.098C154.874 9 154.686 8.96 154.534 8.88C154.382 8.808 154.238 8.7 154.102 8.556C153.926 8.7 153.73 8.8 153.514 8.856C153.226 8.952 152.874 9 152.458 9H150.874C150.674 9 150.574 9.1 150.574 9.3V12.888L149.83 13.476H149.11V9.096C149.11 8.752 149.226 8.452 149.458 8.196C149.722 7.916 150.014 7.776 150.334 7.776H150.538ZM153.778 5.556C153.778 5.268 153.69 5.032 153.514 4.848C153.338 4.656 153.102 4.56 152.806 4.56C152.406 4.56 152.086 4.708 151.846 5.004C151.606 5.292 151.486 5.676 151.486 6.156C151.486 6.676 151.614 7.084 151.87 7.38C152.126 7.668 152.482 7.812 152.938 7.812C153.242 7.812 153.522 7.756 153.778 7.644V5.556ZM159.15 3.48V7.596V7.776H159.762V9H159.342L158.898 8.508H158.874C158.602 8.836 158.262 9 157.854 9H155.538V7.776H157.35C157.462 7.776 157.542 7.744 157.59 7.68C157.662 7.616 157.698 7.536 157.698 7.44V3.48H159.15ZM156.546 9.876C156.762 9.876 156.946 9.952 157.098 10.104C157.25 10.256 157.326 10.44 157.326 10.656C157.326 10.872 157.25 11.056 157.098 11.208C156.946 11.36 156.762 11.436 156.546 11.436C156.33 11.436 156.146 11.36 155.994 11.208C155.842 11.056 155.766 10.872 155.766 10.656C155.766 10.44 155.842 10.256 155.994 10.104C156.146 9.952 156.33 9.876 156.546 9.876ZM158.37 9.876C158.586 9.876 158.77 9.952 158.922 10.104C159.074 10.256 159.15 10.44 159.15 10.656C159.15 10.872 159.074 11.056 158.922 11.208C158.77 11.36 158.586 11.436 158.37 11.436C158.162 11.436 157.982 11.36 157.83 11.208C157.678 11.056 157.602 10.872 157.602 10.656C157.602 10.44 157.678 10.256 157.83 10.104C157.982 9.952 158.162 9.876 158.37 9.876ZM161.811 7.776C161.619 7.312 161.523 6.792 161.523 6.216C161.523 5.272 161.815 4.54 162.399 4.02C162.887 3.58 163.511 3.356 164.271 3.348C164.951 3.348 165.507 3.508 165.939 3.828C166.467 4.228 166.731 4.804 166.731 5.556V7.476C166.731 7.548 166.751 7.616 166.791 7.68C166.855 7.744 166.927 7.776 167.007 7.776H167.115V9H166.587C166.227 9 165.919 8.872 165.663 8.616C165.271 9.112 164.751 9.36 164.103 9.36C163.407 9.36 162.815 9.104 162.327 8.592H162.303L161.967 9H159.675V7.776H161.811ZM165.267 5.556C165.267 5.26 165.175 5.02 164.991 4.836C164.823 4.652 164.583 4.56 164.271 4.56C163.879 4.56 163.563 4.712 163.323 5.016C163.091 5.32 162.975 5.728 162.975 6.24C162.975 6.8 163.095 7.256 163.335 7.608C163.575 7.96 163.883 8.136 164.259 8.136C164.603 8.136 164.939 7.972 165.267 7.644V5.556ZM170.646 5.496C171.718 4.048 173.042 3.324 174.618 3.324C175.578 3.324 176.37 3.624 176.994 4.224C177.562 4.768 177.846 5.456 177.846 6.288V7.392C177.846 7.44 177.842 7.508 177.834 7.596C177.834 7.676 177.834 7.736 177.834 7.776H178.23V9H177.99L177.594 8.508H177.558C177.294 8.836 176.954 9 176.538 9H167.034V7.776H169.194L169.182 3.48H170.646V5.496ZM176.382 6.36C176.374 5.784 176.154 5.328 175.722 4.992C175.354 4.72 174.91 4.584 174.39 4.584C173.59 4.584 172.85 4.916 172.17 5.58C171.546 6.1 171.038 6.832 170.646 7.776H176.082C176.282 7.776 176.382 7.676 176.382 7.476V6.36ZM179.296 0.84C179.512 0.84 179.696 0.916 179.848 1.068C180 1.22 180.076 1.404 180.076 1.62C180.076 1.828 180 2.008 179.848 2.16C179.696 2.312 179.512 2.388 179.296 2.388C179.08 2.388 178.896 2.312 178.744 2.16C178.592 2.008 178.516 1.828 178.516 1.62C178.516 1.404 178.592 1.22 178.744 1.068C178.896 0.916 179.08 0.84 179.296 0.84ZM181.12 0.84C181.336 0.84 181.52 0.916 181.672 1.068C181.824 1.22 181.9 1.404 181.9 1.62C181.9 1.828 181.824 2.008 181.672 2.16C181.52 2.312 181.336 2.388 181.12 2.388C180.912 2.388 180.732 2.312 180.58 2.16C180.428 2.008 180.352 1.828 180.352 1.62C180.352 1.404 180.428 1.22 180.58 1.068C180.732 0.916 180.912 0.84 181.12 0.84ZM181.744 3.48V7.68C181.744 7.992 181.64 8.28 181.432 8.544C181.168 8.848 180.84 9 180.448 9H178.132V7.776H179.98C180.068 7.776 180.144 7.744 180.208 7.68C180.264 7.624 180.292 7.556 180.292 7.476V3.48H181.744ZM187.03 7.776C186.694 7.312 186.526 6.744 186.526 6.072C186.534 5.208 186.826 4.52 187.402 4.008C187.898 3.568 188.518 3.344 189.262 3.336C189.982 3.336 190.566 3.52 191.014 3.888C191.494 4.288 191.734 4.844 191.734 5.556V7.476C191.734 7.564 191.762 7.636 191.818 7.692C191.866 7.748 191.926 7.776 191.998 7.776H192.118V9H191.59C191.366 9 191.178 8.96 191.026 8.88C190.874 8.808 190.73 8.7 190.594 8.556C190.418 8.7 190.222 8.8 190.006 8.856C189.718 8.952 189.366 9 188.95 9H187.366C187.166 9 187.066 9.1 187.066 9.3V12.888L186.322 13.476H185.602V9.096C185.602 8.752 185.718 8.452 185.95 8.196C186.214 7.916 186.506 7.776 186.826 7.776H187.03ZM190.27 5.556C190.27 5.268 190.182 5.032 190.006 4.848C189.83 4.656 189.594 4.56 189.298 4.56C188.898 4.56 188.578 4.708 188.338 5.004C188.098 5.292 187.978 5.676 187.978 6.156C187.978 6.676 188.106 7.084 188.362 7.38C188.618 7.668 188.974 7.812 189.43 7.812C189.734 7.812 190.014 7.756 190.27 7.644V5.556ZM193.182 0.84C193.398 0.84 193.582 0.916 193.734 1.068C193.886 1.22 193.962 1.404 193.962 1.62C193.962 1.828 193.886 2.008 193.734 2.16C193.582 2.312 193.398 2.388 193.182 2.388C192.966 2.388 192.782 2.312 192.63 2.16C192.478 2.008 192.402 1.828 192.402 1.62C192.402 1.404 192.478 1.22 192.63 1.068C192.782 0.916 192.966 0.84 193.182 0.84ZM195.006 0.84C195.222 0.84 195.406 0.916 195.558 1.068C195.71 1.22 195.786 1.404 195.786 1.62C195.786 1.828 195.71 2.008 195.558 2.16C195.406 2.312 195.222 2.388 195.006 2.388C194.798 2.388 194.618 2.312 194.466 2.16C194.314 2.008 194.238 1.828 194.238 1.62C194.238 1.404 194.314 1.22 194.466 1.068C194.618 0.916 194.798 0.84 195.006 0.84ZM195.63 3.48V7.68C195.63 7.992 195.526 8.28 195.318 8.544C195.054 8.848 194.726 9 194.334 9H192.018V7.776H193.866C193.954 7.776 194.03 7.744 194.094 7.68C194.15 7.624 194.178 7.556 194.178 7.476V3.48H195.63Z" fill="#8E939F"/>
</svg>
