<svg width="82" height="38" viewBox="0 0 82 38" fill="none" xmlns="http://www.w3.org/2000/svg">
<path d="M4.21919 0.12C4.50719 0.12 4.75252 0.221333 4.95519 0.424C5.15785 0.626666 5.25919 0.872 5.25919 1.16C5.25919 1.43733 5.15785 1.67733 4.95519 1.88C4.75252 2.08267 4.50719 2.184 4.21919 2.184C3.93119 2.184 3.68585 2.08267 3.48319 1.88C3.28052 1.67733 3.17919 1.43733 3.17919 1.16C3.17919 0.872 3.28052 0.626666 3.48319 0.424C3.68585 0.221333 3.93119 0.12 4.21919 0.12ZM6.65119 0.12C6.93919 0.12 7.18452 0.221333 7.38719 0.424C7.58985 0.626666 7.69119 0.872 7.69119 1.16C7.69119 1.43733 7.58985 1.67733 7.38719 1.88C7.18452 2.08267 6.93919 2.184 6.65119 2.184C6.37385 2.184 6.13385 2.08267 5.93119 1.88C5.72852 1.67733 5.62719 1.43733 5.62719 1.16C5.62719 0.872 5.72852 0.626666 5.93119 0.424C6.13385 0.221333 6.37385 0.12 6.65119 0.12ZM7.69119 3.208V8.968C7.69119 9.096 7.72852 9.192 7.80319 9.256C7.86719 9.33067 7.95252 9.368 8.05919 9.368H8.50719V11H7.49919C7.00852 11 6.56585 10.8027 6.17119 10.408C5.56319 10.9093 4.88585 11.16 4.13919 11.16C3.29652 11.16 2.57119 10.8933 1.96319 10.36C1.15252 9.60267 0.747188 8.58933 0.747188 7.32C0.747188 6.15733 1.12052 5.192 1.86719 4.424C2.54985 3.73067 3.38719 3.384 4.37919 3.384C4.93385 3.384 5.48852 3.50133 6.04319 3.736L6.73119 3.208H7.69119ZM5.73919 5.272C5.36585 5.13333 5.00852 5.064 4.66719 5.064C4.09119 5.064 3.61652 5.27733 3.24319 5.704C2.86985 6.12 2.68319 6.664 2.68319 7.336C2.68319 8.008 2.84852 8.54667 3.17919 8.952C3.52052 9.35733 3.97385 9.56 4.53919 9.56C4.92319 9.56 5.32319 9.47467 5.73919 9.304V5.272ZM17.4693 0.12C17.7573 0.12 18.0026 0.221333 18.2053 0.424C18.408 0.626666 18.5093 0.872 18.5093 1.16C18.5093 1.43733 18.408 1.67733 18.2053 1.88C18.0026 2.08267 17.7573 2.184 17.4693 2.184C17.1813 2.184 16.936 2.08267 16.7333 1.88C16.5306 1.67733 16.4293 1.43733 16.4293 1.16C16.4293 0.872 16.5306 0.626666 16.7333 0.424C16.936 0.221333 17.1813 0.12 17.4693 0.12ZM13.2133 6.328C14.6426 4.39733 16.408 3.432 18.5093 3.432C19.7893 3.432 20.8453 3.832 21.6773 4.632C22.4346 5.35733 22.8133 6.27467 22.8133 7.384V8.856C22.8133 8.92 22.808 9.01067 22.7973 9.128C22.7973 9.23467 22.7973 9.31467 22.7973 9.368H23.3253V11H23.0053L22.4773 10.344H22.4293C22.0773 10.7813 21.624 11 21.0693 11H8.39731V9.368H11.2773L11.2613 3.64H13.2133V6.328ZM20.8613 7.48C20.8506 6.712 20.5573 6.104 19.9813 5.656C19.4906 5.29333 18.8986 5.112 18.2053 5.112C17.1386 5.112 16.152 5.55467 15.2453 6.44C14.4133 7.13333 13.736 8.10933 13.2133 9.368H20.4613C20.728 9.368 20.8613 9.23467 20.8613 8.968V7.48ZM28.0258 3.64V9.128V9.368H28.8418V11H28.2818L27.6898 10.344H27.6578C27.2951 10.7813 26.8418 11 26.2978 11H23.2098V9.368H25.6258C25.7751 9.368 25.8818 9.32533 25.9458 9.24C26.0418 9.15467 26.0898 9.048 26.0898 8.92V3.64H28.0258ZM27.0018 12.168C27.2791 12.168 27.5191 12.2693 27.7218 12.472C27.9245 12.6747 28.0258 12.92 28.0258 13.208C28.0258 13.496 27.9245 13.7413 27.7218 13.944C27.5191 14.1467 27.2791 14.248 27.0018 14.248C26.7138 14.248 26.4685 14.1467 26.2658 13.944C26.0631 13.7413 25.9618 13.496 25.9618 13.208C25.9618 12.92 26.0631 12.6747 26.2658 12.472C26.4685 12.2693 26.7138 12.168 27.0018 12.168ZM32.5654 0.12C32.8534 0.12 33.0988 0.221333 33.3014 0.424C33.5041 0.626666 33.6054 0.872 33.6054 1.16C33.6054 1.43733 33.5041 1.67733 33.3014 1.88C33.0988 2.08267 32.8534 2.184 32.5654 2.184C32.2881 2.184 32.0481 2.08267 31.8454 1.88C31.6428 1.67733 31.5414 1.43733 31.5414 1.16C31.5414 0.872 31.6428 0.626666 31.8454 0.424C32.0481 0.221333 32.2881 0.12 32.5654 0.12ZM33.5414 3.64V9.24C33.5414 9.656 33.4028 10.04 33.1254 10.392C32.7734 10.7973 32.3361 11 31.8134 11H28.7254V9.368H31.1894C31.3068 9.368 31.4081 9.32533 31.4934 9.24C31.5681 9.16533 31.6054 9.07467 31.6054 8.968V3.64H33.5414ZM41.9379 0.12C42.2259 0.12 42.4713 0.221333 42.6739 0.424C42.8766 0.626666 42.9779 0.872 42.9779 1.16C42.9779 1.43733 42.8766 1.67733 42.6739 1.88C42.4713 2.08267 42.2259 2.184 41.9379 2.184C41.6499 2.184 41.4046 2.08267 41.2019 1.88C40.9993 1.67733 40.8979 1.43733 40.8979 1.16C40.8979 0.872 40.9993 0.626666 41.2019 0.424C41.4046 0.221333 41.6499 0.12 41.9379 0.12ZM44.3699 0.12C44.6579 0.12 44.9033 0.221333 45.1059 0.424C45.3086 0.626666 45.4099 0.872 45.4099 1.16C45.4099 1.43733 45.3086 1.67733 45.1059 1.88C44.9033 2.08267 44.6579 2.184 44.3699 2.184C44.0926 2.184 43.8526 2.08267 43.6499 1.88C43.4473 1.67733 43.3459 1.43733 43.3459 1.16C43.3459 0.872 43.4473 0.626666 43.6499 0.424C43.8526 0.221333 44.0926 0.12 44.3699 0.12ZM45.4099 3.208V8.968C45.4099 9.096 45.4473 9.192 45.5219 9.256C45.5859 9.33067 45.6713 9.368 45.7779 9.368H46.2259V11H45.2179C44.7273 11 44.2846 10.8027 43.8899 10.408C43.2819 10.9093 42.6046 11.16 41.8579 11.16C41.0153 11.16 40.2899 10.8933 39.6819 10.36C38.8713 9.60267 38.4659 8.58933 38.4659 7.32C38.4659 6.15733 38.8393 5.192 39.5859 4.424C40.2686 3.73067 41.1059 3.384 42.0979 3.384C42.6526 3.384 43.2073 3.50133 43.7619 3.736L44.4499 3.208H45.4099ZM43.4579 5.272C43.0846 5.13333 42.7273 5.064 42.3859 5.064C41.8099 5.064 41.3353 5.27733 40.9619 5.704C40.5886 6.12 40.4019 6.664 40.4019 7.336C40.4019 8.008 40.5673 8.54667 40.8979 8.952C41.2393 9.35733 41.6926 9.56 42.2579 9.56C42.6419 9.56 43.0419 9.47467 43.4579 9.304V5.272ZM50.9321 3.64V9.128V9.368H51.7481V11H51.1881L50.5961 10.344H50.5641C50.2014 10.7813 49.7481 11 49.2041 11H46.1161V9.368H48.5321C48.6814 9.368 48.7881 9.32533 48.8521 9.24C48.9481 9.15467 48.9961 9.048 48.9961 8.92V3.64H50.9321ZM47.4601 12.168C47.7481 12.168 47.9934 12.2693 48.1961 12.472C48.3987 12.6747 48.5001 12.92 48.5001 13.208C48.5001 13.496 48.3987 13.7413 48.1961 13.944C47.9934 14.1467 47.7481 14.248 47.4601 14.248C47.1721 14.248 46.9267 14.1467 46.7241 13.944C46.5214 13.7413 46.4201 13.496 46.4201 13.208C46.4201 12.92 46.5214 12.6747 46.7241 12.472C46.9267 12.2693 47.1721 12.168 47.4601 12.168ZM49.8921 12.168C50.1801 12.168 50.4254 12.2693 50.6281 12.472C50.8307 12.6747 50.9321 12.92 50.9321 13.208C50.9321 13.496 50.8307 13.7413 50.6281 13.944C50.4254 14.1467 50.1801 14.248 49.8921 14.248C49.6147 14.248 49.3747 14.1467 49.1721 13.944C48.9694 13.7413 48.8681 13.496 48.8681 13.208C48.8681 12.92 48.9694 12.6747 49.1721 12.472C49.3747 12.2693 49.6147 12.168 49.8921 12.168ZM53.8557 6.456C54.2184 5.41067 54.8797 4.616 55.8397 4.072C56.5544 3.66667 57.3277 3.464 58.1597 3.464C58.9917 3.464 59.7544 3.688 60.4477 4.136C61.3117 4.65867 61.9304 5.432 62.3037 6.456L62.1117 6.904C61.685 7.096 61.237 7.42667 60.7677 7.896C60.3197 8.38667 60.0264 8.87733 59.8877 9.368H62.4637V11H58.9437C58.645 11 58.373 10.8613 58.1277 10.584H58.0477C57.8024 10.8613 57.5197 11 57.1997 11H51.6317V9.368H56.2717C56.1437 8.93067 55.8717 8.46667 55.4557 7.976C54.997 7.464 54.5224 7.10667 54.0317 6.904L53.8557 6.456ZM60.2557 6.328C59.9997 5.88 59.653 5.54933 59.2157 5.336C58.885 5.176 58.517 5.096 58.1117 5.096C57.685 5.096 57.2797 5.18667 56.8957 5.368C56.469 5.58133 56.1384 5.90133 55.9037 6.328C56.2664 6.488 56.6504 6.808 57.0557 7.288C57.5037 7.78933 57.8344 8.33333 58.0477 8.92H58.1117C58.3144 8.32267 58.661 7.752 59.1517 7.208C59.5464 6.77067 59.9144 6.47733 60.2557 6.328ZM65.1984 9.368C64.9424 8.74933 64.8144 8.056 64.8144 7.288C64.8144 6.02933 65.2038 5.05333 65.9824 4.36C66.6331 3.77333 67.4651 3.47467 68.4784 3.464C69.3851 3.464 70.1264 3.67733 70.7024 4.104C71.4064 4.63733 71.7584 5.40533 71.7584 6.408V8.968C71.7584 9.064 71.7851 9.15467 71.8384 9.24C71.9238 9.32533 72.0198 9.368 72.1264 9.368H72.2704V11H71.5664C71.0864 11 70.6758 10.8293 70.3344 10.488C69.8118 11.1493 69.1184 11.48 68.2544 11.48C67.3264 11.48 66.5371 11.1387 65.8864 10.456H65.8544L65.4064 11H62.3504V9.368H65.1984ZM69.8064 6.408C69.8064 6.01333 69.6838 5.69333 69.4384 5.448C69.2144 5.20267 68.8944 5.08 68.4784 5.08C67.9558 5.08 67.5344 5.28267 67.2144 5.688C66.9051 6.09333 66.7504 6.63733 66.7504 7.32C66.7504 8.06667 66.9104 8.67467 67.2304 9.144C67.5504 9.61333 67.9611 9.848 68.4624 9.848C68.9211 9.848 69.3691 9.62933 69.8064 9.192V6.408ZM74.2909 3.912C75.3469 3.60267 76.2696 3.448 77.0589 3.448C78.3496 3.448 79.3896 3.85333 80.1789 4.664C80.8936 5.4 81.2509 6.31733 81.2509 7.416V9.24C81.2509 9.67733 81.1016 10.072 80.8029 10.424C80.4509 10.808 80.0243 11 79.5229 11H72.1629V9.368H78.8989C79.1656 9.368 79.2989 9.23467 79.2989 8.968V7.528C79.2989 6.78133 79.0536 6.19467 78.5629 5.768C78.0829 5.34133 77.4163 5.128 76.5629 5.128C76.0723 5.128 75.3149 5.24 74.2909 5.464V3.912ZM76.5309 12.168C76.8189 12.168 77.0643 12.2693 77.2669 12.472C77.4696 12.6747 77.5709 12.92 77.5709 13.208C77.5709 13.496 77.4696 13.7413 77.2669 13.944C77.0643 14.1467 76.8189 14.248 76.5309 14.248C76.2536 14.248 76.0136 14.1467 75.8109 13.944C75.6083 13.7413 75.5069 13.496 75.5069 13.208C75.5069 12.92 75.6083 12.6747 75.8109 12.472C76.0136 12.2693 76.2536 12.168 76.5309 12.168ZM22.4301 23.12C22.7181 23.12 22.9635 23.2213 23.1661 23.424C23.3688 23.6267 23.4701 23.872 23.4701 24.16C23.4701 24.4373 23.3688 24.6773 23.1661 24.88C22.9635 25.0827 22.7181 25.184 22.4301 25.184C22.1421 25.184 21.8968 25.0827 21.6941 24.88C21.4915 24.6773 21.3901 24.4373 21.3901 24.16C21.3901 23.872 21.4915 23.6267 21.6941 23.424C21.8968 23.2213 22.1421 23.12 22.4301 23.12ZM24.8621 23.12C25.1501 23.12 25.3955 23.2213 25.5981 23.424C25.8008 23.6267 25.9021 23.872 25.9021 24.16C25.9021 24.4373 25.8008 24.6773 25.5981 24.88C25.3955 25.0827 25.1501 25.184 24.8621 25.184C24.5848 25.184 24.3448 25.0827 24.1421 24.88C23.9395 24.6773 23.8381 24.4373 23.8381 24.16C23.8381 23.872 23.9395 23.6267 24.1421 23.424C24.3448 23.2213 24.5848 23.12 24.8621 23.12ZM25.9021 26.208V31.968C25.9021 32.096 25.9395 32.192 26.0141 32.256C26.0781 32.3307 26.1635 32.368 26.2701 32.368H26.7181V34H25.7101C25.2195 34 24.7768 33.8027 24.3821 33.408C23.7741 33.9093 23.0968 34.16 22.3501 34.16C21.5075 34.16 20.7821 33.8933 20.1741 33.36C19.3635 32.6027 18.9581 31.5893 18.9581 30.32C18.9581 29.1573 19.3315 28.192 20.0781 27.424C20.7608 26.7307 21.5981 26.384 22.5901 26.384C23.1448 26.384 23.6995 26.5013 24.2541 26.736L24.9421 26.208H25.9021ZM23.9501 28.272C23.5768 28.1333 23.2195 28.064 22.8781 28.064C22.3021 28.064 21.8275 28.2773 21.4541 28.704C21.0808 29.12 20.8941 29.664 20.8941 30.336C20.8941 31.008 21.0595 31.5467 21.3901 31.952C21.7315 32.3573 22.1848 32.56 22.7501 32.56C23.1341 32.56 23.5341 32.4747 23.9501 32.304V28.272ZM31.4243 26.64V32.24C31.4243 32.656 31.2856 33.04 31.0083 33.392C30.6563 33.7973 30.2189 34 29.6963 34H26.6082V32.368H29.0723C29.1896 32.368 29.2909 32.3253 29.3763 32.24C29.4509 32.1653 29.4883 32.0747 29.4883 31.968V26.64H31.4243ZM27.9203 35.168C28.2083 35.168 28.4536 35.2693 28.6562 35.472C28.8589 35.6747 28.9603 35.92 28.9603 36.208C28.9603 36.496 28.8589 36.7413 28.6562 36.944C28.4536 37.1467 28.2083 37.248 27.9203 37.248C27.6429 37.248 27.4029 37.1467 27.2003 36.944C26.9976 36.7413 26.8963 36.496 26.8963 36.208C26.8963 35.92 26.9976 35.6747 27.2003 35.472C27.4029 35.2693 27.6429 35.168 27.9203 35.168ZM30.3683 35.168C30.6563 35.168 30.8963 35.2693 31.0883 35.472C31.2909 35.6747 31.3923 35.92 31.3923 36.208C31.3923 36.496 31.2909 36.7413 31.0883 36.944C30.8963 37.1467 30.6563 37.248 30.3683 37.248C30.0803 37.248 29.8349 37.1467 29.6323 36.944C29.4296 36.7413 29.3283 36.496 29.3283 36.208C29.3283 35.92 29.4296 35.6747 29.6323 35.472C29.8349 35.2693 30.0803 35.168 30.3683 35.168ZM38.1309 26.64V32.368H38.9469V34H38.1149C38.0295 35.28 37.5229 36.2613 36.5949 36.944C35.8269 37.5093 34.8829 37.792 33.7629 37.792C33.5709 37.792 33.3629 37.7867 33.1389 37.776L32.3549 36.8V36.112C32.6962 36.1653 33.0269 36.192 33.3469 36.192C35.2349 36.192 36.1789 35.2747 36.1789 33.44V26.64H38.1309ZM43.6586 26.64V32.128V32.368H44.4746V34H43.9146L43.3226 33.344H43.2906C42.928 33.7813 42.4746 34 41.9306 34H38.8426V32.368H41.2586C41.408 32.368 41.5146 32.3253 41.5786 32.24C41.6746 32.1547 41.7226 32.048 41.7226 31.92V26.64H43.6586ZM40.1866 35.168C40.4746 35.168 40.72 35.2693 40.9226 35.472C41.1253 35.6747 41.2266 35.92 41.2266 36.208C41.2266 36.496 41.1253 36.7413 40.9226 36.944C40.72 37.1467 40.4746 37.248 40.1866 37.248C39.8986 37.248 39.6533 37.1467 39.4506 36.944C39.248 36.7413 39.1466 36.496 39.1466 36.208C39.1466 35.92 39.248 35.6747 39.4506 35.472C39.6533 35.2693 39.8986 35.168 40.1866 35.168ZM42.6186 35.168C42.9066 35.168 43.152 35.2693 43.3546 35.472C43.5573 35.6747 43.6586 35.92 43.6586 36.208C43.6586 36.496 43.5573 36.7413 43.3546 36.944C43.152 37.1467 42.9066 37.248 42.6186 37.248C42.3413 37.248 42.1013 37.1467 41.8986 36.944C41.696 36.7413 41.5946 36.496 41.5946 36.208C41.5946 35.92 41.696 35.6747 41.8986 35.472C42.1013 35.2693 42.3413 35.168 42.6186 35.168ZM49.3983 23.12C49.6863 23.12 49.9316 23.2213 50.1343 23.424C50.3369 23.6267 50.4383 23.872 50.4383 24.16C50.4383 24.4373 50.3369 24.6773 50.1343 24.88C49.9316 25.0827 49.6863 25.184 49.3983 25.184C49.1209 25.184 48.8809 25.0827 48.6783 24.88C48.4756 24.6773 48.3743 24.4373 48.3743 24.16C48.3743 23.872 48.4756 23.6267 48.6783 23.424C48.8809 23.2213 49.1209 23.12 49.3983 23.12ZM46.4703 26.912C47.4836 26.6027 48.4063 26.448 49.2383 26.448C50.5289 26.448 51.5689 26.8533 52.3583 27.664C53.0729 28.3893 53.4303 29.3067 53.4303 30.416V32.128V32.368H53.9583V34H53.6223L53.0943 33.344H53.0623C52.6996 33.7813 52.2463 34 51.7023 34H44.3422V32.368H51.0783C51.3449 32.368 51.4783 32.2347 51.4783 31.968V30.528C51.4783 29.8027 51.2329 29.2213 50.7423 28.784C50.2623 28.336 49.6276 28.112 48.8383 28.112C48.3156 28.112 47.5263 28.2293 46.4703 28.464V26.912ZM58.6586 22.544V32.24C58.6586 32.688 58.5146 33.072 58.2266 33.392C57.896 33.7973 57.464 34 56.9306 34H53.8426V32.368H56.3066C56.424 32.368 56.5253 32.3253 56.6106 32.24C56.6853 32.1653 56.7226 32.0747 56.7226 31.968V22.544H58.6586ZM62.8216 22.544V33.6L61.8296 34.4H60.8696V22.544H62.8216Z" fill="white"/>
</svg>
